<svg width="18" height="19" viewBox="0 0 18 19" fill="none" xmlns="http://www.w3.org/2000/svg">
<path d="M5.80047 3.54817L10.9878 8.8188C11.1016 8.9338 11.1654 9.08903 11.1654 9.2508C11.1654 9.41256 11.1016 9.5678 10.9878 9.6828L5.8016 14.9545C5.68789 15.0703 5.62417 15.226 5.62417 15.3882C5.62417 15.5505 5.68789 15.7062 5.8016 15.8219C5.85715 15.8789 5.92354 15.9242 5.99686 15.9551C6.07019 15.986 6.14896 16.002 6.22854 16.002C6.30811 16.002 6.38688 15.986 6.46021 15.9551C6.53353 15.9242 6.59992 15.8789 6.65547 15.8219L11.8417 10.5524C12.1825 10.2053 12.3734 9.73835 12.3734 9.25192C12.3734 8.7655 12.1825 8.29851 11.8417 7.95142L6.65547 2.68192C6.59991 2.62477 6.53344 2.57934 6.46002 2.54832C6.38659 2.5173 6.30769 2.50131 6.22797 2.50131C6.14826 2.50131 6.06936 2.5173 5.99593 2.54832C5.9225 2.57934 5.85604 2.62477 5.80047 2.68192C5.68676 2.79764 5.62305 2.95338 5.62305 3.11561C5.62305 3.27784 5.68676 3.43359 5.80047 3.5493" fill="black"/>
</svg>
